<?xml version="1.0" encoding="UTF-8"?>
<svg version="1.1" xmlns="http://www.w3.org/2000/svg" width="581" height="441">
<path d="M0 0 C191.73 0 383.46 0 581 0 C581 145.53 581 291.06 581 441 C389.27 441 197.54 441 0 441 C0 295.47 0 149.94 0 0 Z " fill="#FAFAFA" transform="translate(0,0)"/>
<path d="M0 0 C55.77 0 111.54 0 169 0 C169 55.77 169 111.54 169 169 C115.54 169 62.08 169 7 169 C7.33 168.01 7.66 167.02 8 166 C5.36 166.99 2.72 167.98 0 169 C0 113.23 0 57.46 0 0 Z " fill="#FDFDFD" transform="translate(76,211)"/>
<path d="M0 0 C65.01 0 130.02 0 197 0 C197 0.66 197 1.32 197 2 C199.31 1.34 201.62 0.68 204 0 C204 39.6 204 79.2 204 120 C138.99 120 73.98 120 7 120 C7.33 119.01 7.66 118.02 8 117 C5.36 117.99 2.72 118.98 0 120 C0 80.4 0 40.8 0 0 Z " fill="#FEFEFE" transform="translate(256,211)"/>
<path d="M0 0 C2.64 0.99 5.28 1.98 8 3 C8 2.01 8 1.02 8 0 C61.13 0 114.26 0 169 0 C169 22.77 169 45.54 169 69 C113.23 69 57.46 69 0 69 C0 46.23 0 23.46 0 0 Z " fill="#FEFEFE" transform="translate(76,141)"/>
<path d="M0 0 C63.03 0 126.06 0 191 0 C191 13.53 191 27.06 191 41 C159.65 41 128.3 41 96 41 C95.505 41.99 95.505 41.99 95 43 C95 42.34 95 41.68 95 41 C63.65 41 32.3 41 0 41 C0 27.47 0 13.94 0 0 Z " fill="#89B1AA" transform="translate(370,20)"/>
<path d="M0 0 C53.13 0 106.26 0 161 0 C161 0.99 161 1.98 161 3 C163.64 2.01 166.28 1.02 169 0 C169 12.87 169 25.74 169 39 C115.87 39 62.74 39 8 39 C8 38.01 8 37.02 8 36 C5.36 36.99 2.72 37.98 0 39 C0 26.13 0 13.26 0 0 Z " fill="#FAFAFA" transform="translate(76,101)"/>
<path d="M0 0 C33.33 0 66.66 0 101 0 C101 13.53 101 27.06 101 41 C84.5 41 68 41 51 41 C50.67 41.99 50.34 42.98 50 44 C50 43.01 50 42.02 50 41 C33.5 41 17 41 0 41 C0 27.47 0 13.94 0 0 Z " fill="#BFD0BE" transform="translate(200,20)"/>
<path d="M0 0 C33.33 0 66.66 0 101 0 C101 13.53 101 27.06 101 41 C84.5 41 68 41 51 41 C50.67 41.99 50.34 42.98 50 44 C50 43.01 50 42.02 50 41 C33.5 41 17 41 0 41 C0 27.47 0 13.94 0 0 Z " fill="#BFCADD" transform="translate(20,20)"/>
<path d="M0 0 C2.97 0 5.94 0 9 0 C9 108.57 9 217.14 9 329 C6.03 329 3.06 329 0 329 C0 220.43 0 111.86 0 0 Z " fill="#FFFFFF" transform="translate(66,91)"/>
<path d="M0 0 C2.97 0 5.94 0 9 0 C9 96.01204892 9 192.02409784 9 319 C6.03 319 3.06 319 0 319 C-0.04668964 290.1411561 -0.08197395 261.28231784 -0.10362434 232.42344379 C-0.10567737 229.75763763 -0.10774672 227.0918315 -0.10986328 224.42602539 C-0.1103879 223.76342046 -0.11091252 223.10081554 -0.11145304 222.41813167 C-0.11961643 212.35402094 -0.13366106 202.28992908 -0.15087891 192.22583008 C-0.17079315 180.5491394 -0.18371177 168.87246571 -0.18817699 157.19575852 C-0.1907877 151.01119936 -0.19693733 144.82668877 -0.21146011 138.64214516 C-0.22501295 132.82363159 -0.22922728 127.00518671 -0.22621536 121.18665886 C-0.22676655 119.04889172 -0.23075763 116.91112234 -0.23841095 114.77336884 C-0.24833614 111.85857799 -0.24597767 108.94404776 -0.24050903 106.0292511 C-0.24633472 105.18002478 -0.2521604 104.33079847 -0.25816262 103.45583802 C-0.2364279 99.18067005 0.01607545 95.89883336 2 92 C1.34 92 0.68 92 0 92 C0 61.64 0 31.28 0 0 Z " fill="#FEFEFE" transform="translate(246,101)"/>
<path d="M0 0 C2.97 0 5.94 0 9 0 C9 82.17 9 164.34 9 249 C6.03 249 3.06 249 0 249 C0 166.83 0 84.66 0 0 Z " fill="#FFFFFF" transform="translate(461,121)"/>
<path d="M0 0 C0 0.66 0 1.32 0 2 C52.8 2.33 105.6 2.66 160 3 C160 3.33 160 3.66 160 4 C106.87 4 53.74 4 -1 4 C-0.67 5.32 -0.34 6.64 0 8 C-2.64 6.68 -5.28 5.36 -8 4 C-4 0 -4 0 0 0 Z " fill="#060606" transform="translate(84,377)"/>
<path d="M0 0 C0.66 0 1.32 0 2 0 C2.33 0.66 2.66 1.32 3 2 C3.66 1.34 4.32 0.68 5 0 C7.75 -0.30078125 7.75 -0.30078125 11 -0.3125 C12.0725 -0.32925781 13.145 -0.34601563 14.25 -0.36328125 C15.1575 -0.24339844 16.065 -0.12351562 17 0 C17.66 0.99 18.32 1.98 19 3 C19.66 2.01 20.32 1.02 21 0 C21 2.64 21 5.28 21 8 C20.01 7.34 19.02 6.68 18 6 C17.67 6.66 17.34 7.32 17 8 C15.04233719 8.08082094 13.08373272 8.13910778 11.125 8.1875 C9.48917969 8.23970703 9.48917969 8.23970703 7.8203125 8.29296875 C6.88960937 8.19628906 5.95890625 8.09960938 5 8 C4.34 7.01 3.68 6.02 3 5 C2.67 5.99 2.34 6.98 2 8 C1.34 8 0.68 8 0 8 C0 5.36 0 2.72 0 0 Z " fill="#808080" transform="translate(154,87)"/>
<path d="M0 0 C0.33 0.66 0.66 1.32 1 2 C2.27875 2 3.5575 2 4.875 2 C8.58333333 2 12.29166667 2 16 2 C16 4.31 16 6.62 16 9 C15.34 8.67 14.68 8.34 14 8 C14 6.68 14 5.36 14 4 C13.34 5.65 12.68 7.3 12 9 C5.33333333 9 -1.33333333 9 -8 9 C-8 7.68 -8 6.36 -8 5 C-6.68 5 -5.36 5 -4 5 C-4 4.34 -4 3.68 -4 3 C-5.32 3.33 -6.64 3.66 -8 4 C-7.67 3.34 -7.34 2.68 -7 2 C-6.21625 2.04125 -5.4325 2.0825 -4.625 2.125 C-1.83883881 2.28728734 -1.83883881 2.28728734 0 0 Z " fill="#BBBBBB" transform="translate(419,190)"/>
<path d="M0 0 C2.4375 0.375 2.4375 0.375 5 1 C7.83967231 1 10.23735711 0.59732819 13 0 C14.09658936 3.28976808 13.79953138 4.71303767 13 8 C9.71303767 8.79953138 8.28976808 9.09658936 5 8 C2.99787771 8.32033957 0.99760305 8.65259077 -1 9 C-2 8 -2 8 -2.1875 5.0625 C-2 2 -2 2 0 0 Z " fill="#B6B6B6" transform="translate(113,190)"/>
<path d="M0 0 C1.98 0 3.96 0 6 0 C5.67 0.99 5.34 1.98 5 3 C5.70125 2.835 6.4025 2.67 7.125 2.5 C10.13888194 1.97584662 12.94713625 1.92900317 16 2 C16.66 3.32 17.32 4.64 18 6 C16.3420422 8.0181531 15.51505038 8.92886044 12.87890625 9.29296875 C12.11449219 9.25816406 11.35007813 9.22335938 10.5625 9.1875 C9.80066406 9.16042969 9.03882813 9.13335937 8.25390625 9.10546875 C7.51011719 9.07066406 6.76632813 9.03585938 6 9 C4.68 9 3.36 9 2 9 C1.01 9 0.02 9 -1 9 C-1.125 2.25 -1.125 2.25 0 0 Z " fill="#A3A3A3" transform="translate(224,190)"/>
<path d="M0 0 C5.33333333 0 10.66666667 0 16 0 C16 2.31 16 4.62 16 7 C14.68 7 13.36 7 12 7 C9.99598989 7.30830925 7.99488234 7.63729412 6 8 C5.34 7.01 4.68 6.02 4 5 C3.01 5 2.02 5 1 5 C1.33 3.68 1.66 2.36 2 1 C1.34 0.67 0.68 0.34 0 0 Z " fill="#AAAAAA" transform="translate(321,317)"/>
<path d="M0 0 C1.67293936 0.30027117 3.33985384 0.63557767 5 1 C7.42797311 1 9.62907005 0.49914315 12 0 C11.01 0.33 10.02 0.66 9 1 C9 1.66 9 2.32 9 3 C10.32 3.33 11.64 3.66 13 4 C12.67 5.32 12.34 6.64 12 8 C10.02090602 8.02686553 8.04171029 8.04633375 6.0625 8.0625 C4.96035156 8.07410156 3.85820313 8.08570312 2.72265625 8.09765625 C0 8 0 8 -1 7 C-1.125 4 -1.125 4 -1 1 C-0.67 0.67 -0.34 0.34 0 0 Z " fill="#8D8D8D" transform="translate(112,87)"/>
<path d="M0 0 C0.66 0.66 1.32 1.32 2 2 C4.44012949 2.24287489 4.44012949 2.24287489 7.125 2.125 C8.03507813 2.10695312 8.94515625 2.08890625 9.8828125 2.0703125 C10.58148438 2.04710937 11.28015625 2.02390625 12 2 C11.67 4.31 11.34 6.62 11 9 C7.7 9 4.4 9 1 9 C0.67 8.01 0.34 7.02 0 6 C-0.99 6.33 -1.98 6.66 -3 7 C-1.125 1.125 -1.125 1.125 0 0 Z " fill="#AAAAAA" transform="translate(145,190)"/>
<path d="M0 0 C0.33 0 0.66 0 1 0 C1.33 17.16 1.66 34.32 2 52 C2.99 52.33 3.98 52.66 5 53 C4.01 53.495 4.01 53.495 3 54 C2.52425562 56.54024004 2.15992453 59.00051464 1.875 61.5625 C1.78863281 62.27341797 1.70226562 62.98433594 1.61328125 63.71679688 C1.40065217 65.47689312 1.19927303 67.23834164 1 69 C0.67 69 0.34 69 0 69 C0 64.71 0 60.42 0 56 C-0.99 55.67 -1.98 55.34 -3 55 C-2.01 55 -1.02 55 0 55 C0 36.85 0 18.7 0 0 Z " fill="#0B0B0B" transform="translate(245,140)"/>
<path d="M0 0 C1.0725 0.350625 2.145 0.70125 3.25 1.0625 C6.79455649 1.94863912 7.73332782 1.96790287 11 1 C11.66 1.66 12.32 2.32 13 3 C12.625 5.125 12.625 5.125 12 7 C7.92544361 8.08654837 4.21692364 8 0 8 C-0.38063221 5.6739143 -0.71269945 3.33944736 -1 1 C-0.67 0.67 -0.34 0.34 0 0 Z " fill="#435653" transform="translate(431,29)"/>
<path d="M0 0 C0.928125 0.2784375 0.928125 0.2784375 1.875 0.5625 C4.04160178 1.23686176 4.04160178 1.23686176 6 0 C6 0.66 6 1.32 6 2 C6.99 2 7.98 2 9 2 C9 2.99 9 3.98 9 5 C9.66 5 10.32 5 11 5 C11 4.01 11 3.02 11 2 C11.66 2 12.32 2 13 2 C13 2.66 13 3.32 13 4 C13.66 4 14.32 4 15 4 C15.33 3.34 15.66 2.68 16 2 C15.67 4.31 15.34 6.62 15 9 C14.34 9 13.68 9 13 9 C12.67 8.34 12.34 7.68 12 7 C11.67 7.66 11.34 8.32 11 9 C10.34 9 9.68 9 9 9 C8.67 7.02 8.34 5.04 8 3 C7.34 3 6.68 3 6 3 C6.33 4.98 6.66 6.96 7 9 C6.01 9 5.02 9 4 9 C4 7.02 4 5.04 4 3 C3.34 3 2.68 3 2 3 C2 4.98 2 6.96 2 9 C1.34 9 0.68 9 0 9 C-1.125 2.25 -1.125 2.25 0 0 Z " fill="#3F4349" transform="translate(61,43)"/>
<path d="M0 0 C4.29 0 8.58 0 13 0 C13 1.98 13 3.96 13 6 C11.02 6 9.04 6 7 6 C7 6.66 7 7.32 7 8 C6.34 8 5.68 8 5 8 C5 7.34 5 6.68 5 6 C3.02 6 1.04 6 -1 6 C-0.67 4.02 -0.34 2.04 0 0 Z " fill="#A9A9A9" transform="translate(198,129)"/>
<path d="M0 0 C1.65 0 3.3 0 5 0 C5 0.99 5 1.98 5 3 C5.9590625 2.7215625 5.9590625 2.7215625 6.9375 2.4375 C7.618125 2.293125 8.29875 2.14875 9 2 C10 3 10 3 10.0625 5.5625 C10.041875 6.366875 10.02125 7.17125 10 8 C6.16262438 8.80786855 2.93591456 9 -1 9 C-1.125 2.25 -1.125 2.25 0 0 Z " fill="#A0A0A0" transform="translate(308,190)"/>
<path d="M0 0 C2 1 2 1 4 4 C4.66 3.34 5.32 2.68 6 2 C8.68839385 1.73008094 11.29141936 1.91262643 14 2 C13.01 2.495 13.01 2.495 12 3 C12 4.32 12 5.64 12 7 C12.99 6.67 13.98 6.34 15 6 C15 6.66 15 7.32 15 8 C13.083412 8.02712153 11.1667127 8.04645097 9.25 8.0625 C7.64898437 8.07990234 7.64898437 8.07990234 6.015625 8.09765625 C3.4509249 8.01460249 1.45714328 7.61428582 -1 7 C-1.99 7.495 -1.99 7.495 -3 8 C-1.125 1.125 -1.125 1.125 0 0 Z " fill="#8B8B8B" transform="translate(98,127)"/>
<path d="M0 0 C8.375 0 8.375 0 12 1 C12 2.65 12 4.3 12 6 C8.846632 6.70074844 6.27275026 7 3 7 C2.67 6.34 2.34 5.68 2 5 C1.67 5.66 1.34 6.32 1 7 C0.34 6.67 -0.32 6.34 -1 6 C-0.67 4.02 -0.34 2.04 0 0 Z " fill="#959595" transform="translate(210,192)"/>
<path d="M0 0 C0.99 0 1.98 0 3 0 C3.33 0.66 3.66 1.32 4 2 C6.52733235 2.65555119 6.52733235 2.65555119 9 3 C9 4.98 9 6.96 9 9 C6.03 9 3.06 9 0 9 C0 6.03 0 3.06 0 0 Z " fill="#8E9B8E" transform="translate(246,28)"/>
<path d="M0 0 C2.05078125 0.03255208 4.1015625 0.06510417 6.15234375 0.09765625 C6.15234375 0.75765625 6.15234375 1.41765625 6.15234375 2.09765625 C6.81234375 2.42765625 7.47234375 2.75765625 8.15234375 3.09765625 C8.48234375 2.10765625 8.81234375 1.11765625 9.15234375 0.09765625 C10.47234375 0.42765625 11.79234375 0.75765625 13.15234375 1.09765625 C12.82234375 2.74765625 12.49234375 4.39765625 12.15234375 6.09765625 C9.51234375 6.09765625 6.87234375 6.09765625 4.15234375 6.09765625 C4.48234375 5.43765625 4.81234375 4.77765625 5.15234375 4.09765625 C4.16234375 4.42765625 3.17234375 4.75765625 2.15234375 5.09765625 C0.82127753 5.43993042 -0.51165704 5.77517368 -1.84765625 6.09765625 C-2.22984392 4.44150968 -2.56160727 2.77308601 -2.84765625 1.09765625 C-1.84765625 0.09765625 -1.84765625 0.09765625 0 0 Z " fill="#5F5F5F" transform="translate(116.84765625,128.90234375)"/>
<path d="M0 0 C0.66 0.99 1.32 1.98 2 3 C2.66 2.01 3.32 1.02 4 0 C4 2.64 4 5.28 4 8 C3.01 7.34 2.02 6.68 1 6 C0.67 6.66 0.34 7.32 0 8 C-2.64 7.67 -5.28 7.34 -8 7 C-8 5.02 -8 3.04 -8 1 C-5.10765685 0.17361624 -3.11257569 0 0 0 Z " fill="#F2F2F2" transform="translate(171,87)"/>
<path d="M0 0 C0.99 0.33 1.98 0.66 3 1 C2.67 3.64 2.34 6.28 2 9 C-0.97 9 -3.94 9 -7 9 C-7.33 6.69 -7.66 4.38 -8 2 C-5.13822943 0.56911472 -3.06624227 1.40008303 0 2 C0 1.34 0 0.68 0 0 Z " fill="#31403D" transform="translate(410,28)"/>
<path d="M0 0 C0.33 0.66 0.66 1.32 1 2 C1.66 2 2.32 2 3 2 C3.33 1.34 3.66 0.68 4 0 C4 0.66 4 1.32 4 2 C4.99 2 5.98 2 7 2 C7 4.31 7 6.62 7 9 C6.34 9 5.68 9 5 9 C5 7.35 5 5.7 5 4 C4.34 5.65 3.68 7.3 3 9 C2.34 9 1.68 9 1 9 C1.33 7.02 1.66 5.04 2 3 C1.34 3 0.68 3 0 3 C0 4.98 0 6.96 0 9 C-2.66666667 9 -5.33333333 9 -8 9 C-8 7.02 -8 5.04 -8 3 C-7.34 2.67 -6.68 2.34 -6 2 C-6.33 3.98 -6.66 5.96 -7 8 C-6.34 7.67 -5.68 7.34 -5 7 C-4.87625 6.195625 -4.7525 5.39125 -4.625 4.5625 C-4 2 -4 2 -1.9375 0.6875 C-1.298125 0.460625 -0.65875 0.23375 0 0 Z " fill="#7C7C7C" transform="translate(383,190)"/>
<path d="M0 0 C1.67542976 0.28604898 3.34385343 0.61781233 5 1 C5 1.66 5 2.32 5 3 C5.66 3 6.32 3 7 3 C7 3.99 7 4.98 7 6 C7.66 6 8.32 6 9 6 C8.690625 5.38125 8.38125 4.7625 8.0625 4.125 C7.375 2.75 6.6875 1.375 6 0 C7.65 0.33 9.3 0.66 11 1 C11 2.98 11 4.96 11 7 C9.18757948 7.02687279 7.37504767 7.04633715 5.5625 7.0625 C4.55316406 7.07410156 3.54382813 7.08570313 2.50390625 7.09765625 C0 7 0 7 -1 6 C-1.125 3.5 -1.125 3.5 -1 1 C-0.67 0.67 -0.34 0.34 0 0 Z " fill="#5E7A75" transform="translate(418,30)"/>
<path d="M0 0 C4.57071175 0.34495938 7.58325171 0.85659158 11 4 C10.67 4.99 10.34 5.98 10 7 C8.35425434 7.02688151 6.70838587 7.04634123 5.0625 7.0625 C4.14597656 7.07410156 3.22945313 7.08570313 2.28515625 7.09765625 C0 7 0 7 -1 6 C-1.125 3.5 -1.125 3.5 -1 1 C-0.67 0.67 -0.34 0.34 0 0 Z " fill="#566F6B" transform="translate(486,30)"/>
<path d="M0 0 C0.66 0 1.32 0 2 0 C2 0.99 2 1.98 2 3 C2.99 3 3.98 3 5 3 C5 2.01 5 1.02 5 0 C9.95 0 14.9 0 20 0 C19.01 0.495 19.01 0.495 18 1 C18 3.31 18 5.62 18 8 C17.67 8 17.34 8 17 8 C17 5.69 17 3.38 17 1 C15.02 1 13.04 1 11 1 C11 3.31 11 5.62 11 8 C10.67 8 10.34 8 10 8 C10 5.69 10 3.38 10 1 C9.01 1 8.02 1 7 1 C7 3.31 7 5.62 7 8 C6.34 8 5.68 8 5 8 C5 6.68 5 5.36 5 4 C4.01 4 3.02 4 2 4 C2 5.32 2 6.64 2 8 C1.34 8 0.68 8 0 8 C0 5.36 0 2.72 0 0 Z " fill="#5F5F5F" transform="translate(289,317)"/>
<path d="M0 0 C0.90492188 0.02320313 1.80984375 0.04640625 2.7421875 0.0703125 C4.10730469 0.09738281 4.10730469 0.09738281 5.5 0.125 C6.19867188 0.14820313 6.89734375 0.17140625 7.6171875 0.1953125 C7.6171875 2.5053125 7.6171875 4.8153125 7.6171875 7.1953125 C6.9571875 6.8653125 6.2971875 6.5353125 5.6171875 6.1953125 C5.6171875 4.8753125 5.6171875 3.5553125 5.6171875 2.1953125 C4.9571875 3.8453125 4.2971875 5.4953125 3.6171875 7.1953125 C1.3071875 7.1953125 -1.0028125 7.1953125 -3.3828125 7.1953125 C-4.0078125 4.8203125 -4.0078125 4.8203125 -4.3828125 2.1953125 C-2.3828125 0.1953125 -2.3828125 0.1953125 0 0 Z " fill="#8D8D8D" transform="translate(287.3828125,191.8046875)"/>
<path d="M0 0 C0.33 0.66 0.66 1.32 1 2 C3.01669827 3.13350534 3.01669827 3.13350534 5 4 C5.4125 3.484375 5.825 2.96875 6.25 2.4375 C6.8275 1.963125 7.405 1.48875 8 1 C10.1875 1.3125 10.1875 1.3125 12 2 C12.625 3.875 12.625 3.875 13 6 C11 8 11 8 8.3984375 8.1953125 C7.40070312 8.17210937 6.40296875 8.14890625 5.375 8.125 C3.87066406 8.09792969 3.87066406 8.09792969 2.3359375 8.0703125 C1.56507812 8.04710937 0.79421875 8.02390625 0 8 C-0.33 7.34 -0.66 6.68 -1 6 C0.32 6.33 1.64 6.66 3 7 C2.505 6.5875 2.01 6.175 1.5 5.75 C0 4 0 4 0 0 Z " fill="#9099A7" transform="translate(47,44)"/>
<path d="M0 0 C2.5 0.125 2.5 0.125 3.5 1.125 C3.625 4.625 3.625 4.625 3.5 8.125 C2.5 9.125 2.5 9.125 0.0625 9.375 C-0.783125 9.2925 -1.62875 9.21 -2.5 9.125 C-4.5 6.125 -4.5 6.125 -4.1875 3.5 C-3.22096128 0.16104806 -3.22096128 0.16104806 0 0 Z " fill="#323732" transform="translate(236.5,42.875)"/>
<path d="M0 0 C0.33 0.66 0.66 1.32 1 2 C1.99 2 2.98 2 4 2 C4.33 2.66 4.66 3.32 5 4 C5.33 3.34 5.66 2.68 6 2 C6.66 2 7.32 2 8 2 C7.01 4.97 6.02 7.94 5 11 C4.34 10.67 3.68 10.34 3 10 C3 7.69 3 5.38 3 3 C2.34 3 1.68 3 1 3 C1.33 4.98 1.66 6.96 2 9 C1.01 9 0.02 9 -1 9 C-1 7.02 -1 5.04 -1 3 C-1.99 3 -2.98 3 -4 3 C-4 4.98 -4 6.96 -4 9 C-4.66 9 -5.32 9 -6 9 C-6 6.69 -6 4.38 -6 2 C-4.02 1.34 -2.04 0.68 0 0 Z " fill="#494E55" transform="translate(93,28)"/>
<path d="M0 0 C1.99954746 -0.04254356 4.00041636 -0.04080783 6 0 C7 1 7 1 7.125 4.5 C7 8 7 8 6 9 C4.00041636 9.04080783 1.99954746 9.04254356 0 9 C0 6.03 0 3.06 0 0 Z " fill="#293533" transform="translate(516,43)"/>
<path d="M0 0 C1.8125 0.0859375 1.8125 0.0859375 4 0.375 C5.0828125 0.51035156 5.0828125 0.51035156 6.1875 0.6484375 C8 1 8 1 9 2 C9.04080783 3.99958364 9.04254356 6.00045254 9 8 C6.03 8 3.06 8 0 8 C-0.38063221 5.6739143 -0.71269945 3.33944736 -1 1 C-0.67 0.67 -0.34 0.34 0 0 Z " fill="#5B7570" transform="translate(513,29)"/>
<path d="M0 0 C3.27275026 0 5.846632 0.29925156 9 1 C8.01 1.495 8.01 1.495 7 2 C6.34 1.67 5.68 1.34 5 1 C5 1.66 5 2.32 5 3 C6.32 3.33 7.64 3.66 9 4 C8.67 5.32 8.34 6.64 8 8 C4.7 8 1.4 8 -2 8 C-2 7.01 -2 6.02 -2 5 C-1.67 5.33 -1.34 5.66 -1 6 C-0.67 4.02 -0.34 2.04 0 0 Z " fill="#898989" transform="translate(351,317)"/>
<path d="M0 0 C3.27275026 0 5.846632 0.29925156 9 1 C8.01 1.495 8.01 1.495 7 2 C6.34 1.67 5.68 1.34 5 1 C6.32 2.32 7.64 3.64 9 5 C8.67 5.99 8.34 6.98 8 8 C0 8 0 8 -3 7 C-2.67 6.34 -2.34 5.68 -2 5 C-1.34 5.33 -0.68 5.66 0 6 C0 4.02 0 2.04 0 0 Z " fill="#8A8A8A" transform="translate(154,367)"/>
<path d="M0 0 C2.0625 0.4375 2.0625 0.4375 4 1 C4.33 0.67 4.66 0.34 5 0 C6.66617115 -0.04063832 8.33388095 -0.042721 10 0 C10.33 0.66 10.66 1.32 11 2 C10.0625 4.625 10.0625 4.625 9 7 C8 4 8 4 9 1 C8.34 1 7.68 1 7 1 C6.67 2.98 6.34 4.96 6 7 C3.69 7 1.38 7 -1 7 C-1.625 4.625 -1.625 4.625 -2 2 C-1.34 1.34 -0.68 0.68 0 0 Z " fill="#777777" transform="translate(169,192)"/>
<path d="M0 0 C0.66 0 1.32 0 2 0 C2.33 0.66 2.66 1.32 3 2 C4.32 2 5.64 2 7 2 C7 4.31 7 6.62 7 9 C4.36 9 1.72 9 -1 9 C-1.125 2.25 -1.125 2.25 0 0 Z " fill="#B3B3B3" transform="translate(298,190)"/>
<path d="M0 0 C0.66 0 1.32 0 2 0 C2 0.66 2 1.32 2 2 C3.65 2 5.3 2 7 2 C7.33 3.65 7.66 5.3 8 7 C6.68 7.33 5.36 7.66 4 8 C4 8.66 4 9.32 4 10 C2.68 10 1.36 10 0 10 C0 6.7 0 3.4 0 0 Z " fill="#949494" transform="translate(180,87)"/>
<path d="M0 0 C6.0546875 -0.1953125 6.0546875 -0.1953125 8 0 C8.66 0.66 9.32 1.32 10 2 C9.625 4.125 9.625 4.125 9 6 C5.92677456 6.91058531 3.19902639 7.08886184 0 7 C0 4.69 0 2.38 0 0 Z " fill="#5E7974" transform="translate(527,30)"/>
<path d="M0 0 C1.32 0 2.64 0 4 0 C4 0.66 4 1.32 4 2 C4.99 2 5.98 2 7 2 C7 3.98 7 5.96 7 8 C6.67 8 6.34 8 6 8 C6 6.35 6 4.7 6 3 C5.34 3 4.68 3 4 3 C4 4.65 4 6.3 4 8 C1.69 8 -0.62 8 -3 8 C-3 6.02 -3 4.04 -3 2 C-2.01 2 -1.02 2 0 2 C0 1.34 0 0.68 0 0 Z " fill="#818181" transform="translate(392,317)"/>
<path d="M0 0 C7.25 0 7.25 0 11 1 C10.01 1.495 10.01 1.495 9 2 C8.34444881 4.52733235 8.34444881 4.52733235 8 7 C5.33333333 7 2.66666667 7 0 7 C-0.33 7.66 -0.66 8.32 -1 9 C-0.67 6.03 -0.34 3.06 0 0 Z " fill="#989898" transform="translate(260,192)"/>
<path d="M0 0 C1.1446875 0.2475 1.1446875 0.2475 2.3125 0.5 C5.00856207 1.00159294 6.44020291 0.8532657 9 0 C9.33 1.65 9.66 3.3 10 5 C6.61981469 6.04005702 3.5219721 6.08004482 0 6 C-0.38218767 4.34385343 -0.71395102 2.67542976 -1 1 C-0.67 0.67 -0.34 0.34 0 0 Z " fill="#9C9C9C" transform="translate(408,319)"/>
<path d="M0 0 C1.37478516 0.01740234 1.37478516 0.01740234 2.77734375 0.03515625 C3.69644531 0.04417969 4.61554688 0.05320313 5.5625 0.0625 C6.27277344 0.07410156 6.98304687 0.08570313 7.71484375 0.09765625 C7.05484375 0.75765625 6.39484375 1.41765625 5.71484375 2.09765625 C5.06716582 4.66826936 5.06716582 4.66826936 4.71484375 7.09765625 C2.07484375 7.09765625 -0.56515625 7.09765625 -3.28515625 7.09765625 C-3.32769981 5.09810879 -3.32596408 3.09723989 -3.28515625 1.09765625 C-2.28515625 0.09765625 -2.28515625 0.09765625 0 0 Z " fill="#4C5158" transform="translate(81.28515625,44.90234375)"/>
<path d="M0 0 C1.37478516 0.01740234 1.37478516 0.01740234 2.77734375 0.03515625 C3.69644531 0.04417969 4.61554688 0.05320313 5.5625 0.0625 C6.27277344 0.07410156 6.98304688 0.08570313 7.71484375 0.09765625 C7.05484375 0.75765625 6.39484375 1.41765625 5.71484375 2.09765625 C5.06716582 4.66826936 5.06716582 4.66826936 4.71484375 7.09765625 C2.381896 7.14007348 0.04781808 7.13858562 -2.28515625 7.09765625 C-3.28515625 6.09765625 -3.28515625 6.09765625 -3.41015625 3.59765625 C-3.24867212 0.36797363 -3.22032317 0.13762065 0 0 Z " fill="#5F7B76" transform="translate(460.28515625,44.90234375)"/>
<path d="M0 0 C0.66 0 1.32 0 2 0 C2 2.64 2 5.28 2 8 C-0.66666667 8 -3.33333333 8 -6 8 C-6.33 7.34 -6.66 6.68 -7 6 C-7.33 6.66 -7.66 7.32 -8 8 C-8.66 8 -9.32 8 -10 8 C-10.33 6.02 -10.66 4.04 -11 2 C-7.33333333 2 -3.66666667 2 0 2 C0 1.34 0 0.68 0 0 Z " fill="#828282" transform="translate(194,367)"/>
<path d="M0 0 C0.99 1.485 0.99 1.485 2 3 C2.66 2.01 3.32 1.02 4 0 C7.625 -0.1875 7.625 -0.1875 11 0 C11 1.32 11 2.64 11 4 C9.68 4 8.36 4 7 4 C7 4.66 7 5.32 7 6 C8.32 5.67 9.64 5.34 11 5 C10.67 5.66 10.34 6.32 10 7 C9.21625 6.835 8.4325 6.67 7.625 6.5 C5.11791961 5.9376293 5.11791961 5.9376293 3 6 C2.01 6 1.02 6 0 6 C0 4.02 0 2.04 0 0 Z " fill="#666666" transform="translate(348,192)"/>
<path d="M0 0 C0.66 0 1.32 0 2 0 C2.33 0.66 2.66 1.32 3 2 C3.66 2.33 4.32 2.66 5 3 C4.67 3.66 4.34 4.32 4 5 C4.66 5.33 5.32 5.66 6 6 C6.33 4.68 6.66 3.36 7 2 C8.32 2.33 9.64 2.66 11 3 C10.67 4.65 10.34 6.3 10 8 C6.66666667 8 3.33333333 8 0 8 C0 5.36 0 2.72 0 0 Z " fill="#808080" transform="translate(145,127)"/>
<path d="M0 0 C2.01822917 0.06510417 4.03645833 0.13020833 6.0546875 0.1953125 C6.3846875 2.1753125 6.7146875 4.1553125 7.0546875 6.1953125 C3.7546875 6.1953125 0.4546875 6.1953125 -2.9453125 6.1953125 C-3.2753125 4.8753125 -3.6053125 3.5553125 -3.9453125 2.1953125 C-1.9453125 0.1953125 -1.9453125 0.1953125 0 0 Z " fill="#7D7D7D" transform="translate(212.9453125,368.8046875)"/>
<path d="M0 0 C0.66 0 1.32 0 2 0 C2 1.65 2 3.3 2 5 C2.66 5 3.32 5 4 5 C4.33 3.35 4.66 1.7 5 0 C5.66 0 6.32 0 7 0 C7.33 0.99 7.66 1.98 8 3 C8.33 2.01 8.66 1.02 9 0 C9.66 0 10.32 0 11 0 C10.67 2.64 10.34 5.28 10 8 C9.01 8.33 8.02 8.66 7 9 C6.67 7.68 6.34 6.36 6 5 C5.34 6.32 4.68 7.64 4 9 C3.34 9 2.68 9 2 9 C1.34 6.03 0.68 3.06 0 0 Z " fill="#26312F" transform="translate(378,43)"/>
<path d="M0 0 C1.2065625 0.0309375 1.2065625 0.0309375 2.4375 0.0625 C2.4375 2.7025 2.4375 5.3425 2.4375 8.0625 C0.7875 8.3925 -0.8625 8.7225 -2.5625 9.0625 C-3.54400241 6.11799278 -3.7238058 4.12731021 -3.5625 1.0625 C-2.5625 0.0625 -2.5625 0.0625 0 0 Z " fill="#455956" transform="translate(531.5625,44.9375)"/>
<path d="M0 0 C2.97 0 5.94 0 9 0 C9 0.66 9 1.32 9 2 C9.99 2 10.98 2 12 2 C12 4.31 12 6.62 12 9 C11.67 9 11.34 9 11 9 C11 7.02 11 5.04 11 3 C10.34 3 9.68 3 9 3 C9 4.98 9 6.96 9 9 C6.03 9 3.06 9 0 9 C3 7 3 7 6 7 C6 5.35 6 3.7 6 2 C3.03 1.505 3.03 1.505 0 1 C0 0.67 0 0.34 0 0 Z " fill="#3B4C49" transform="translate(423,43)"/>
<path d="M0 0 C2 3 2 3 1.625 5.6875 C1.41875 6.450625 1.2125 7.21375 1 8 C-2.32534757 9.10844919 -4.62182575 8.84454356 -8 8 C-8 7.34 -8 6.68 -8 6 C-7.34 6 -6.68 6 -6 6 C-6 6.66 -6 7.32 -6 8 C-5.34 8 -4.68 8 -4 8 C-4.99 7.01 -5.98 6.02 -7 5 C-6.67 4.01 -6.34 3.02 -6 2 C-4.02 2 -2.04 2 0 2 C0 1.34 0 0.68 0 0 Z " fill="#898989" transform="translate(165,190)"/>
<path d="M0 0 C1.67542976 0.28604898 3.34385343 0.61781233 5 1 C5.625 3.375 5.625 3.375 6 6 C5.34 6.66 4.68 7.32 4 8 C1.375 7.625 1.375 7.625 -1 7 C-1.04254356 5.00045254 -1.04080783 2.99958364 -1 1 C-0.67 0.67 -0.34 0.34 0 0 Z " fill="#606060" transform="translate(363,317)"/>
<path d="M0 0 C1.32 0 2.64 0 4 0 C4.125 6.75 4.125 6.75 3 9 C1.35 8.67 -0.3 8.34 -2 8 C-2.125 5.125 -2.125 5.125 -2 2 C-1.34 1.34 -0.68 0.68 0 0 Z " fill="#BBBBBB" transform="translate(113,190)"/>
<path d="M0 0 C0.66 0 1.32 0 2 0 C2 0.66 2 1.32 2 2 C3.65 2 5.3 2 7 2 C7.38218767 3.65614657 7.71395102 5.32457024 8 7 C7 8 7 8 3.4375 8.0625 C2.303125 8.041875 1.16875 8.02125 0 8 C0 5.36 0 2.72 0 0 Z " fill="#919191" transform="translate(207,87)"/>
<path d="M0 0 C1.67542976 0.28604898 3.34385343 0.61781233 5 1 C5.625 3.375 5.625 3.375 6 6 C5.34 6.66 4.68 7.32 4 8 C1.375 7.625 1.375 7.625 -1 7 C-1.04254356 5.00045254 -1.04080783 2.99958364 -1 1 C-0.67 0.67 -0.34 0.34 0 0 Z " fill="#A0A0A0" transform="translate(147,87)"/>
<path d="M0 0 C2.33944736 0.28730055 4.6739143 0.61936779 7 1 C7 2.65 7 4.3 7 6 C4.6739143 6.38063221 2.33944736 6.71269945 0 7 C-1 6 -1 6 -1.125 3.5 C-1 1 -1 1 0 0 Z " fill="#7EA29C" transform="translate(422,44)"/>
<path d="M0 0 C1.67542976 0.28604898 3.34385343 0.61781233 5 1 C5 2.98 5 4.96 5 7 C2.625 7.625 2.625 7.625 0 8 C-0.66 7.34 -1.32 6.68 -2 6 C-1.44444444 1.44444444 -1.44444444 1.44444444 0 0 Z " fill="#6B6B6B" transform="translate(166,367)"/>
<path d="M0 0 C0.66 0.99 1.32 1.98 2 3 C2.99 3 3.98 3 5 3 C4.67 3.66 4.34 4.32 4 5 C4.39938767 7.09821215 4.39938767 7.09821215 5 9 C4.34 9 3.68 9 3 9 C2.67 8.34 2.34 7.68 2 7 C1.67 7.66 1.34 8.32 1 9 C-1.33294775 9.04241723 -3.66702567 9.04092937 -6 9 C-7 8 -7 8 -7.0625 5.4375 C-7.041875 4.633125 -7.02125 3.82875 -7 3 C-5.68 2.67 -4.36 2.34 -3 2 C-2.67 2.66 -2.34 3.32 -2 4 C-2.66 4 -3.32 4 -4 4 C-4.33 5.32 -4.66 6.64 -5 8 C-3.35 7.67 -1.7 7.34 0 7 C0 4.69 0 2.38 0 0 Z " fill="#2B3735" transform="translate(451,43)"/>
<path d="M0 0 C1.15941038 3.47823115 0.70820884 5.45895578 0 9 C-2.64 9 -5.28 9 -8 9 C-8 7.68 -8 6.36 -8 5 C-6.68 5 -5.36 5 -4 5 C-4 4.34 -4 3.68 -4 3 C-5.32 3.33 -6.64 3.66 -8 4 C-7.67 3.34 -7.34 2.68 -7 2 C-6.21625 2.04125 -5.4325 2.0825 -4.625 2.125 C-1.83883881 2.28728734 -1.83883881 2.28728734 0 0 Z " fill="#6F6F6F" transform="translate(419,190)"/>
<path d="M0 0 C1.98 0 3.96 0 6 0 C6.33 1.65 6.66 3.3 7 5 C5.35 5.33 3.7 5.66 2 6 C2 6.99 2 7.98 2 9 C1.34 9 0.68 9 0 9 C0 6.03 0 3.06 0 0 Z " fill="#636C63" transform="translate(238,28)"/>
<path d="M0 0 C1.6396875 0.2475 1.6396875 0.2475 3.3125 0.5 C6.87525873 1.06718184 6.87525873 1.06718184 10 1 C9.67 3.64 9.34 6.28 9 9 C8.34 9 7.68 9 7 9 C6.67 8.34 6.34 7.68 6 7 C5.34 7.66 4.68 8.32 4 9 C1.875 8.625 1.875 8.625 0 8 C0.99 7.67 1.98 7.34 3 7 C3.25030977 4.58380177 3.25030977 4.58380177 3 2 C2.01 1.34 1.02 0.68 0 0 Z " fill="#2A3634" transform="translate(458,28)"/>
<path d="M0 0 C1.32 0 2.64 0 4 0 C4.79953138 3.28696233 5.09658936 4.71023192 4 8 C2.35 7.67 0.7 7.34 -1 7 C-1.04254356 5.00045254 -1.04080783 2.99958364 -1 1 C-0.67 0.67 -0.34 0.34 0 0 Z " fill="#ACACAC" transform="translate(112,87)"/>
<path d="M0 0 C1.66611905 -0.042721 3.33382885 -0.04063832 5 0 C6 1 6 1 6.125 3.5 C6 6 6 6 5 7 C3.33382885 7.04063832 1.66611905 7.042721 0 7 C0 4.69 0 2.38 0 0 Z " fill="#759791" transform="translate(456,29)"/>
<path d="M0 0 C1.485 0.99 1.485 0.99 3 2 C3.33 1.34 3.66 0.68 4 0 C4.66 0 5.32 0 6 0 C6 2.64 6 5.28 6 8 C4.02 8 2.04 8 0 8 C0 5.36 0 2.72 0 0 Z " fill="#8B8B8B" transform="translate(173,367)"/>
<path d="M0 0 C1.98 0 3.96 0 6 0 C6.5625 1.9375 6.5625 1.9375 7 4 C6 5 6 5 3.4375 5.0625 C2.2309375 5.0315625 2.2309375 5.0315625 1 5 C0.34 6.32 -0.32 7.64 -1 9 C-0.67 6.03 -0.34 3.06 0 0 Z " fill="#8E8E8E" transform="translate(103,190)"/>
<path d="M0 0 C3 1 3 1 4.1875 3.375 C5 6 5 6 5 9 C4.34 9 3.68 9 3 9 C3 8.34 3 7.68 3 7 C1.68 7 0.36 7 -1 7 C-1 7.66 -1 8.32 -1 9 C-1.66 9 -2.32 9 -3 9 C-2.01 6.03 -1.02 3.06 0 0 Z " fill="#344341" transform="translate(477,43)"/>
<path d="M0 0 C3 1 3 1 4.1875 3.375 C5 6 5 6 5 9 C4.34 9 3.68 9 3 9 C3 8.34 3 7.68 3 7 C1.68 7 0.36 7 -1 7 C-1 7.66 -1 8.32 -1 9 C-1.66 9 -2.32 9 -3 9 C-2.01 6.03 -1.02 3.06 0 0 Z " fill="#484F48" transform="translate(217,28)"/>
<path d="M0 0 C1.875 0.25 1.875 0.25 4 1 C5.3125 2.9375 5.3125 2.9375 6 5 C5.67 5.66 5.34 6.32 5 7 C3.02 7 1.04 7 -1 7 C-1 3 -1 3 0 0 Z " fill="#848484" transform="translate(185,192)"/>
<path d="M0 0 C0 2.31 0 4.62 0 7 C-3.68754757 6.50168276 -5.60490662 5.89932357 -8 3 C-3.375 0 -3.375 0 0 0 Z " fill="#191919" transform="translate(84,137)"/>
<path d="M0 0 C1.67542976 0.28604898 3.34385343 0.61781233 5 1 C5 2.65 5 4.3 5 6 C3.34385343 6.38218767 1.67542976 6.71395102 0 7 C-1 6 -1 6 -1.125 3.5 C-1 1 -1 1 0 0 Z " fill="#4F6662" transform="translate(499,45)"/>
<path d="M0 0 C3 1 3 1 4.1875 3.375 C5 6 5 6 5 9 C4.34 9 3.68 9 3 9 C3 8.34 3 7.68 3 7 C1.68 7 0.36 7 -1 7 C-1 7.66 -1 8.32 -1 9 C-1.66 8.67 -2.32 8.34 -3 8 C-2.01 5.36 -1.02 2.72 0 0 Z " fill="#474D46" transform="translate(244,43)"/>
<path d="M0 0 C1.67542976 0.28604898 3.34385343 0.61781233 5 1 C5 2.65 5 4.3 5 6 C3.34385343 6.38218767 1.67542976 6.71395102 0 7 C-1 6 -1 6 -1.125 3.5 C-1 1 -1 1 0 0 Z " fill="#4F6662" transform="translate(396,30)"/>
<path d="M0 0 C1.67542976 0.28604898 3.34385343 0.61781233 5 1 C5 2.65 5 4.3 5 6 C3.34385343 6.38218767 1.67542976 6.71395102 0 7 C-1 6 -1 6 -1.125 3.5 C-1 1 -1 1 0 0 Z " fill="#6E786D" transform="translate(265,30)"/>
<path d="M0 0 C0.9590625 0.2784375 0.9590625 0.2784375 1.9375 0.5625 C2.9584375 0.7790625 2.9584375 0.7790625 4 1 C4.33 0.67 4.66 0.34 5 0 C6.66617115 -0.04063832 8.33388095 -0.042721 10 0 C10 2.31 10 4.62 10 7 C9.34 6.67 8.68 6.34 8 6 C8 4.68 8 3.36 8 2 C7.34 3.65 6.68 5.3 6 7 C4.68 6.67 3.36 6.34 2 6 C2 4.68 2 3.36 2 2 C1.34 1.34 0.68 0.68 0 0 Z " fill="#838383" transform="translate(425,192)"/>
<path d="M0 0 C1.65 0 3.3 0 5 0 C5.33 1.65 5.66 3.3 6 5 C4.35 5.33 2.7 5.66 1 6 C0.67 6.99 0.34 7.98 0 9 C0 6.03 0 3.06 0 0 Z " fill="#425652" transform="translate(484,43)"/>
<path d="M0 0 C1.65 0 3.3 0 5 0 C5.33 1.65 5.66 3.3 6 5 C4.35 5.33 2.7 5.66 1 6 C0.67 6.99 0.34 7.98 0 9 C0 6.03 0 3.06 0 0 Z " fill="#3F524E" transform="translate(473,28)"/>
<path d="M0 0 C1.65 0 3.3 0 5 0 C5.33 1.65 5.66 3.3 6 5 C4.35 5.33 2.7 5.66 1 6 C0.67 6.99 0.34 7.98 0 9 C0 6.03 0 3.06 0 0 Z " fill="#575F57" transform="translate(224,28)"/>
<path d="M0 0 C1.65 0 3.3 0 5 0 C5.33 1.65 5.66 3.3 6 5 C4.35 5.33 2.7 5.66 1 6 C0.67 6.99 0.34 7.98 0 9 C0 6.03 0 3.06 0 0 Z " fill="#575C64" transform="translate(73,28)"/>
<path d="M0 0 C2.0625 0.4375 2.0625 0.4375 4 1 C4 2.98 4 4.96 4 7 C2.0625 7.5625 2.0625 7.5625 0 8 C-1 7 -1 7 -1.125 4 C-1 1 -1 1 0 0 Z " fill="#949494" transform="translate(136,367)"/>
<path d="M0 0 C2.0625 0.4375 2.0625 0.4375 4 1 C4 2.98 4 4.96 4 7 C2.0625 7.5625 2.0625 7.5625 0 8 C-1 7 -1 7 -1.125 4 C-1 1 -1 1 0 0 Z " fill="#949494" transform="translate(130,367)"/>
<path d="M0 0 C1.65 0 3.3 0 5 0 C5.33 1.65 5.66 3.3 6 5 C4.68 5 3.36 5 2 5 C2 5.99 2 6.98 2 8 C1.34 8 0.68 8 0 8 C0 5.36 0 2.72 0 0 Z " fill="#7E7E7E" transform="translate(310,317)"/>
<path d="M0 0 C1.4540625 0.0309375 1.4540625 0.0309375 2.9375 0.0625 C2.9375 2.0425 2.9375 4.0225 2.9375 6.0625 C0.60416667 6.0625 -1.72916667 6.0625 -4.0625 6.0625 C-4.105221 4.39638095 -4.10313832 2.72867115 -4.0625 1.0625 C-3.0625 0.0625 -3.0625 0.0625 0 0 Z " fill="#AEAEAE" transform="translate(251.0625,192.9375)"/>
<path d="M0 0 C2.31 0 4.62 0 7 0 C7 1.98 7 3.96 7 6 C2.25 5.125 2.25 5.125 0 4 C0 2.68 0 1.36 0 0 Z " fill="#8A8A8A" transform="translate(198,89)"/>
<path d="M0 0 C0.33 0 0.66 0 1 0 C1 2.97 1 5.94 1 9 C-0.65 8.67 -2.3 8.34 -4 8 C-4 6.35 -4 4.7 -4 3 C-2.68 2.67 -1.36 2.34 0 2 C0 1.34 0 0.68 0 0 Z " fill="#52575E" transform="translate(66,28)"/>
<path d="M0 0 C1.32 0 2.64 0 4 0 C5 6.875 5 6.875 5 8 C3.35 8 1.7 8 0 8 C0 5.36 0 2.72 0 0 Z " fill="#888888" transform="translate(425,317)"/>
<path d="M0 0 C2.125 0.375 2.125 0.375 4 1 C3.67 2.65 3.34 4.3 3 6 C1.68 6.33 0.36 6.66 -1 7 C-1.625 4.625 -1.625 4.625 -2 2 C-1.34 1.34 -0.68 0.68 0 0 Z " fill="#9A9A9A" transform="translate(393,192)"/>
<path d="M0 0 C5.75 1.75 5.75 1.75 8 4 C2.25 7 2.25 7 0 7 C-0.93423645 3.98968256 -1.04449911 3.13349732 0 0 Z " fill="#0A0A0A" transform="translate(237,97)"/>
<path d="M0 0 C1.32 0 2.64 0 4 0 C4.33 0.99 4.66 1.98 5 3 C5.33 2.01 5.66 1.02 6 0 C6.66 0 7.32 0 8 0 C7.34 2.31 6.68 4.62 6 7 C5.34 7 4.68 7 4 7 C3.67 6.01 3.34 5.02 3 4 C2.67 4.99 2.34 5.98 2 7 C1.34 7 0.68 7 0 7 C0 4.69 0 2.38 0 0 Z " fill="#364744" transform="translate(397,45)"/>
<path d="M0 0 C1.65 0 3.3 0 5 0 C5 2.64 5 5.28 5 8 C3.35 8 1.7 8 0 8 C0 5.36 0 2.72 0 0 Z " fill="#848484" transform="translate(227,367)"/>
<path d="M0 0 C2 0.25 2 0.25 4 1 C4.33 1.99 4.66 2.98 5 4 C3.75 5.5625 3.75 5.5625 2 7 C-0.1875 6.6875 -0.1875 6.6875 -2 6 C-1.125 1.125 -1.125 1.125 0 0 Z " fill="#7E7E7E" transform="translate(237,192)"/>
<path d="M0 0 C2.31 0 4.62 0 7 0 C6.67 2.31 6.34 4.62 6 7 C5.34 6.01 4.68 5.02 4 4 C2.68 4 1.36 4 0 4 C0 4.66 0 5.32 0 6 C0.99 5.67 1.98 5.34 3 5 C3 5.66 3 6.32 3 7 C1.35 6.67 -0.3 6.34 -2 6 C-1.67 5.01 -1.34 4.02 -1 3 C0.32 3 1.64 3 3 3 C3 2.34 3 1.68 3 1 C1.68 1.33 0.36 1.66 -1 2 C-0.67 1.34 -0.34 0.68 0 0 Z " fill="#6B6B6B" transform="translate(340,192)"/>
<path d="M0 0 C0.66 0 1.32 0 2 0 C2 0.66 2 1.32 2 2 C2.99 2.33 3.98 2.66 5 3 C4.34 3 3.68 3 3 3 C3 3.66 3 4.32 3 5 C4.65 5 6.3 5 8 5 C8 5.33 8 5.66 8 6 C6.35 6 4.7 6 3 6 C3.33 6.99 3.66 7.98 4 9 C3.34 9 2.68 9 2 9 C2 8.01 2 7.02 2 6 C1.34 6 0.68 6 0 6 C0 6.99 0 7.98 0 9 C-0.66 8.67 -1.32 8.34 -2 8 C-1.34 5.36 -0.68 2.72 0 0 Z " fill="#848484" transform="translate(201,190)"/>
<path d="M0 0 C2.97 0 5.94 0 9 0 C8.01 0.495 8.01 0.495 7 1 C7 2.98 7 4.96 7 7 C7.66 7.33 8.32 7.66 9 8 C8.01 8 7.02 8 6 8 C5.34 7.01 4.68 6.02 4 5 C3.01 5 2.02 5 1 5 C1.33 3.68 1.66 2.36 2 1 C1.34 0.67 0.68 0.34 0 0 Z " fill="#797979" transform="translate(321,317)"/>
<path d="M0 0 C2.31 0 4.62 0 7 0 C7 1.98 7 3.96 7 6 C5.02 6 3.04 6 1 6 C0.67 6.66 0.34 7.32 0 8 C0.33 6.68 0.66 5.36 1 4 C1.66 4.33 2.32 4.66 3 5 C3 3.68 3 2.36 3 1 C2.01 1.33 1.02 1.66 0 2 C0 1.34 0 0.68 0 0 Z " fill="#777777" transform="translate(204,129)"/>
<path d="M0 0 C0 2.31 0 4.62 0 7 C-1.65 7 -3.3 7 -5 7 C-5 5.02 -5 3.04 -5 1 C-3 0 -3 0 0 0 Z " fill="#717883" transform="translate(56,30)"/>
<path d="M0 0 C1.65 0 3.3 0 5 0 C5.33 1.32 5.66 2.64 6 4 C4.35 4.33 2.7 4.66 1 5 C0.67 5.99 0.34 6.98 0 8 C0 5.36 0 2.72 0 0 Z " fill="#757575" transform="translate(113,367)"/>
<path d="M0 0 C0.66 0 1.32 0 2 0 C2.66 0.99 3.32 1.98 4 3 C4.66 2.01 5.32 1.02 6 0 C6 2.64 6 5.28 6 8 C5.01 7.34 4.02 6.68 3 6 C2.67 6.66 2.34 7.32 2 8 C1.34 8 0.68 8 0 8 C0 5.36 0 2.72 0 0 Z " fill="#727272" transform="translate(370,317)"/>
<path d="M0 0 C1.65 0.33 3.3 0.66 5 1 C4.67 2.65 4.34 4.3 4 6 C2.35 6.33 0.7 6.66 -1 7 C-0.67 4.69 -0.34 2.38 0 0 Z " fill="#BDBDBD" transform="translate(231,192)"/>
<path d="M0 0 C1.65 0 3.3 0 5 0 C5.33 1.32 5.66 2.64 6 4 C4.35 4.33 2.7 4.66 1 5 C0.67 5.99 0.34 6.98 0 8 C0 5.36 0 2.72 0 0 Z " fill="#767676" transform="translate(104,87)"/>
<path d="M0 0 C0.66 0 1.32 0 2 0 C2.66 0.99 3.32 1.98 4 3 C4.66 2.01 5.32 1.02 6 0 C6 2.64 6 5.28 6 8 C5.01 7.34 4.02 6.68 3 6 C2.67 6.66 2.34 7.32 2 8 C1.34 8 0.68 8 0 8 C0 5.36 0 2.72 0 0 Z " fill="#727272" transform="translate(169,87)"/>
<path d="M0 0 C2.0625 0.4375 2.0625 0.4375 4 1 C4 2.65 4 4.3 4 6 C2.0625 6.5625 2.0625 6.5625 0 7 C-1 6 -1 6 -1.125 3.5 C-1 1 -1 1 0 0 Z " fill="#C6D8C5" transform="translate(235,44)"/>
<path d="M0 0 C0.66 0 1.32 0 2 0 C2.66 1.32 3.32 2.64 4 4 C4.66 2.68 5.32 1.36 6 0 C6 2.97 6 5.94 6 9 C4.68 7.68 3.36 6.36 2 5 C1.34 6.32 0.68 7.64 0 9 C0 6.03 0 3.06 0 0 Z " fill="#1B2422" transform="translate(387,28)"/>
<path d="M0 0 C3.68754757 0.49831724 5.60490662 1.10067643 8 4 C5.6875 5.5625 5.6875 5.5625 3 7 C2.01 6.67 1.02 6.34 0 6 C0.33 5.01 0.66 4.02 1 3 C0.67 2.01 0.34 1.02 0 0 Z " fill="#1D1D1D" transform="translate(452,207)"/>
<path d="M0 0 C2.0625 0.4375 2.0625 0.4375 4 1 C4 1.99 4 2.98 4 4 C2.68 4 1.36 4 0 4 C0 4.66 0 5.32 0 6 C1.32 5.67 2.64 5.34 4 5 C3.67 5.66 3.34 6.32 3 7 C1.35 6.67 -0.3 6.34 -2 6 C-1.125 1.125 -1.125 1.125 0 0 Z " fill="#707070" transform="translate(272,192)"/>
<path d="M0 0 C2.0625 0.4375 2.0625 0.4375 4 1 C4 3.31 4 5.62 4 8 C2.68 8 1.36 8 0 8 C-0.38063221 5.6739143 -0.71269945 3.33944736 -1 1 C-0.67 0.67 -0.34 0.34 0 0 Z " fill="#536B67" transform="translate(403,29)"/>
<path d="M0 0 C2.125 0.375 2.125 0.375 4 1 C4 1.99 4 2.98 4 4 C2.68 4 1.36 4 0 4 C0 4.66 0 5.32 0 6 C1.32 5.67 2.64 5.34 4 5 C3.67 5.66 3.34 6.32 3 7 C1.68 7 0.36 7 -1 7 C-1.625 4.625 -1.625 4.625 -2 2 C-1.34 1.34 -0.68 0.68 0 0 Z " fill="#344340" transform="translate(408,45)"/>
<path d="M0 0 C2.125 0.375 2.125 0.375 4 1 C4 1.99 4 2.98 4 4 C2.68 4 1.36 4 0 4 C0 4.66 0 5.32 0 6 C1.32 5.67 2.64 5.34 4 5 C3.67 5.66 3.34 6.32 3 7 C1.68 7 0.36 7 -1 7 C-1.625 4.625 -1.625 4.625 -2 2 C-1.34 1.34 -0.68 0.68 0 0 Z " fill="#474C52" transform="translate(91,45)"/>
<path d="M0 0 C2.125 0.375 2.125 0.375 4 1 C4 1.99 4 2.98 4 4 C2.68 4 1.36 4 0 4 C0 4.66 0 5.32 0 6 C1.32 5.67 2.64 5.34 4 5 C3.67 5.66 3.34 6.32 3 7 C1.68 7 0.36 7 -1 7 C-1.625 4.625 -1.625 4.625 -2 2 C-1.34 1.34 -0.68 0.68 0 0 Z " fill="#344340" transform="translate(500,30)"/>
<path d="M0 0 C1.32 0 2.64 0 4 0 C4 2.31 4 4.62 4 7 C2.35 7 0.7 7 -1 7 C-1 5.68 -1 4.36 -1 3 C0.32 3 1.64 3 3 3 C3 2.34 3 1.68 3 1 C1.68 1.33 0.36 1.66 -1 2 C-0.67 1.34 -0.34 0.68 0 0 Z " fill="#6D6D6D" transform="translate(301,192)"/>
<path d="M0 0 C1.65 0.33 3.3 0.66 5 1 C5 2.98 5 4.96 5 7 C4.01 7.495 4.01 7.495 3 8 C3 7.01 3 6.02 3 5 C1.68 4.67 0.36 4.34 -1 4 C-0.67 2.68 -0.34 1.36 0 0 Z " fill="#8B8B8B" transform="translate(122,190)"/>
<path d="M0 0 C0.33 0.66 0.66 1.32 1 2 C1.99 2 2.98 2 4 2 C4 4.31 4 6.62 4 9 C3.34 9 2.68 9 2 9 C2 7.35 2 5.7 2 4 C1.34 5.65 0.68 7.3 0 9 C-0.66 9 -1.32 9 -2 9 C-2 6.69 -2 4.38 -2 2 C-1.34 2 -0.68 2 0 2 C0 1.34 0 0.68 0 0 Z " fill="#878787" transform="translate(386,190)"/>
<path d="M0 0 C1.32 0 2.64 0 4 0 C4 2.31 4 4.62 4 7 C2.35 7 0.7 7 -1 7 C-1 5.68 -1 4.36 -1 3 C0.32 3 1.64 3 3 3 C3 2.34 3 1.68 3 1 C2.01 1.33 1.02 1.66 0 2 C0 1.34 0 0.68 0 0 Z " fill="#6B6B6B" transform="translate(369,192)"/>
<path d="M0 0 C0.66 0.99 1.32 1.98 2 3 C2.66 3 3.32 3 4 3 C4 3.66 4 4.32 4 5 C2.68 5 1.36 5 0 5 C-0.33 5.99 -0.66 6.98 -1 8 C-1.33 7.67 -1.66 7.34 -2 7 C-2.33 7.66 -2.66 8.32 -3 9 C-3.66 8.67 -4.32 8.34 -5 8 C-3.35 5.36 -1.7 2.72 0 0 Z " fill="#B8B8B8" transform="translate(368,190)"/>
<path d="M0 0 C2.35953094 2.35953094 2.49141413 3.77895617 3 7 C3.66 6.67 4.32 6.34 5 6 C5 6.99 5 7.98 5 9 C3.35 9 1.7 9 0 9 C-1.125 6.1875 -1.125 6.1875 -2 3 C-1.34 2.01 -0.68 1.02 0 0 Z " fill="#898989" transform="translate(193,190)"/>
<path d="M0 0 C0.66 0.66 1.32 1.32 2 2 C2.99 2 3.98 2 5 2 C5 2.66 5 3.32 5 4 C3.37373596 5.38232443 1.7074998 6.71937515 0 8 C0 7.34 0 6.68 0 6 C-0.99 6.33 -1.98 6.66 -3 7 C-1.125 1.125 -1.125 1.125 0 0 Z " fill="#909090" transform="translate(145,190)"/>
<path d="M0 0 C1.32 0.33 2.64 0.66 4 1 C3.67 2.65 3.34 4.3 3 6 C1.35 5.67 -0.3 5.34 -2 5 C-1.34 3.35 -0.68 1.7 0 0 Z " fill="#838383" transform="translate(126,129)"/>
<path d="M0 0 C2.0625 0.4375 2.0625 0.4375 4 1 C4 1.99 4 2.98 4 4 C3.01 4 2.02 4 1 4 C1 4.66 1 5.32 1 6 C1.99 5.67 2.98 5.34 4 5 C4 5.66 4 6.32 4 7 C2.35 6.67 0.7 6.34 -1 6 C-1.042721 4.33388095 -1.04063832 2.66617115 -1 1 C-0.67 0.67 -0.34 0.34 0 0 Z " fill="#303F3C" transform="translate(458,45)"/>
<path d="M0 0 C2.0625 0.4375 2.0625 0.4375 4 1 C4 1.99 4 2.98 4 4 C3.01 4 2.02 4 1 4 C1 4.66 1 5.32 1 6 C1.99 5.67 2.98 5.34 4 5 C4 5.66 4 6.32 4 7 C2.35 6.67 0.7 6.34 -1 6 C-1.042721 4.33388095 -1.04063832 2.66617115 -1 1 C-0.67 0.67 -0.34 0.34 0 0 Z " fill="#303F3C" transform="translate(438,45)"/>
<path d="M0 0 C0.66 0 1.32 0 2 0 C2 0.66 2 1.32 2 2 C2.99 2 3.98 2 5 2 C5 4.31 5 6.62 5 9 C4.67 9 4.34 9 4 9 C4 7.02 4 5.04 4 3 C3.34 3 2.68 3 2 3 C2 4.98 2 6.96 2 9 C1.34 9 0.68 9 0 9 C0 6.03 0 3.06 0 0 Z " fill="#3D423C" transform="translate(262,43)"/>
<path d="M0 0 C2.0625 0.4375 2.0625 0.4375 4 1 C4 1.99 4 2.98 4 4 C3.01 4 2.02 4 1 4 C1 4.66 1 5.32 1 6 C1.99 5.67 2.98 5.34 4 5 C4 5.66 4 6.32 4 7 C2.35 6.67 0.7 6.34 -1 6 C-1.042721 4.33388095 -1.04063832 2.66617115 -1 1 C-0.67 0.67 -0.34 0.34 0 0 Z " fill="#303F3C" transform="translate(486,30)"/>
<path d="M0 0 C1.65 0.33 3.3 0.66 5 1 C5 2.98 5 4.96 5 7 C3.35 7 1.7 7 0 7 C-0.33 5.68 -0.66 4.36 -1 3 C-0.34 3 0.32 3 1 3 C1 3.99 1 4.98 1 6 C1.66 6 2.32 6 3 6 C2.690625 5.38125 2.38125 4.7625 2.0625 4.125 C1.375 2.75 0.6875 1.375 0 0 Z " fill="#2C3936" transform="translate(517,30)"/>
<path d="M0 0 C1.65 0.33 3.3 0.66 5 1 C5 2.98 5 4.96 5 7 C3.35 7 1.7 7 0 7 C-0.33 5.68 -0.66 4.36 -1 3 C-0.34 3 0.32 3 1 3 C1 3.99 1 4.98 1 6 C1.66 6 2.32 6 3 6 C2.690625 5.38125 2.38125 4.7625 2.0625 4.125 C1.375 2.75 0.6875 1.375 0 0 Z " fill="#3D423D" transform="translate(250,30)"/>
<path d="M0 0 C1.98 0.495 1.98 0.495 4 1 C3.67 2.65 3.34 4.3 3 6 C1.68 5.67 0.36 5.34 -1 5 C-0.67 3.35 -0.34 1.7 0 0 Z " fill="#8B8B8B" transform="translate(140,129)"/>
<path d="M0 0 C1.32 0.33 2.64 0.66 4 1 C4 2.65 4 4.3 4 6 C2.68 6.33 1.36 6.66 0 7 C0 4.69 0 2.38 0 0 Z " fill="#90BBB3" transform="translate(518,44)"/>
<path d="M0 0 C1.32 0.33 2.64 0.66 4 1 C4 2.98 4 4.96 4 7 C2.35 7 0.7 7 -1 7 C-1.33 5.68 -1.66 4.36 -2 3 C-1.34 3 -0.68 3 0 3 C0 3.99 0 4.98 0 6 C0.66 6 1.32 6 2 6 C1.34 4.02 0.68 2.04 0 0 Z " fill="#3A3D43" transform="translate(82,30)"/>
<path d="M0 0 C1.32 0 2.64 0 4 0 C3.67 0.66 3.34 1.32 3 2 C3.39938767 4.09821215 3.39938767 4.09821215 4 6 C2.68 6.33 1.36 6.66 0 7 C-0.93423645 3.98968256 -1.04449911 3.13349732 0 0 Z " fill="#838383" transform="translate(278,192)"/>
<path d="M0 0 C0.99 1.485 0.99 1.485 2 3 C2.66 2.01 3.32 1.02 4 0 C4.66 0 5.32 0 6 0 C6 1.98 6 3.96 6 6 C4 6 2 6 0 6 C0 4.02 0 2.04 0 0 Z " fill="#9F9F9F" transform="translate(348,192)"/>
<path d="M0 0 C1.98 0.495 1.98 0.495 4 1 C3.67 2.65 3.34 4.3 3 6 C1.68 5.67 0.36 5.34 -1 5 C-0.67 3.35 -0.34 1.7 0 0 Z " fill="#B5B5B5" transform="translate(168,193)"/>
<path d="M0 0 C1.98 0.495 1.98 0.495 4 1 C3.67 2.65 3.34 4.3 3 6 C1.68 5.67 0.36 5.34 -1 5 C-0.67 3.35 -0.34 1.7 0 0 Z " fill="#696969" transform="translate(193,129)"/>
<path d="M0 0 C1.98 0.495 1.98 0.495 4 1 C3.67 2.65 3.34 4.3 3 6 C1.68 5.67 0.36 5.34 -1 5 C-0.67 3.35 -0.34 1.7 0 0 Z " fill="#696969" transform="translate(152,129)"/>
<path d="M0 0 C2.475 0.495 2.475 0.495 5 1 C5 2.98 5 4.96 5 7 C3.35 7 1.7 7 0 7 C0.33 5.68 0.66 4.36 1 3 C1 3.99 1 4.98 1 6 C1.66 6 2.32 6 3 6 C2.690625 5.38125 2.38125 4.7625 2.0625 4.125 C1.375 2.75 0.6875 1.375 0 0 Z " fill="#242F2D" transform="translate(543,45)"/>
<path d="M0 0 C1.2065625 0.0309375 1.2065625 0.0309375 2.4375 0.0625 C1.7775 0.7225 1.1175 1.3825 0.4375 2.0625 C-0.21017793 4.63311311 -0.21017793 4.63311311 -0.5625 7.0625 C-1.5525 7.0625 -2.5425 7.0625 -3.5625 7.0625 C-3.60504356 5.06295254 -3.60330783 3.06208364 -3.5625 1.0625 C-2.5625 0.0625 -2.5625 0.0625 0 0 Z " fill="#79808B" transform="translate(86.5625,44.9375)"/>
<path d="M0 0 C2.475 0.495 2.475 0.495 5 1 C5 2.98 5 4.96 5 7 C3.35 7 1.7 7 0 7 C0.33 5.68 0.66 4.36 1 3 C1 3.99 1 4.98 1 6 C1.66 6 2.32 6 3 6 C2.690625 5.38125 2.38125 4.7625 2.0625 4.125 C1.375 2.75 0.6875 1.375 0 0 Z " fill="#242F2D" transform="translate(424,30)"/>
<path d="M0 0 C0.99 0 1.98 0 3 0 C3 2.31 3 4.62 3 7 C2.01 7.33 1.02 7.66 0 8 C0 5.36 0 2.72 0 0 Z " fill="#9A9A9A" transform="translate(334,317)"/>
<path d="M0 0 C1.32 0.33 2.64 0.66 4 1 C3.67 2.98 3.34 4.96 3 7 C1.35 6.67 -0.3 6.34 -2 6 C-2 5.34 -2 4.68 -2 4 C-1.34 4 -0.68 4 0 4 C0 4.66 0 5.32 0 6 C0.66 6 1.32 6 2 6 C1.01 5.01 0.02 4.02 -1 3 C-0.67 2.01 -0.34 1.02 0 0 Z " fill="#6E6E6E" transform="translate(438,192)"/>
<path d="M0 0 C1.32 0.33 2.64 0.66 4 1 C3.67 2.98 3.34 4.96 3 7 C1.35 6.67 -0.3 6.34 -2 6 C-2 5.34 -2 4.68 -2 4 C-1.34 4 -0.68 4 0 4 C0 4.66 0 5.32 0 6 C0.66 6 1.32 6 2 6 C1.01 5.01 0.02 4.02 -1 3 C-0.67 2.01 -0.34 1.02 0 0 Z " fill="#6E6E6E" transform="translate(406,192)"/>
<path d="M0 0 C0.33 0.66 0.66 1.32 1 2 C3.01669827 3.13350534 3.01669827 3.13350534 5 4 C4.67 5.32 4.34 6.64 4 8 C2.35 7.67 0.7 7.34 -1 7 C-0.34 6.67 0.32 6.34 1 6 C1.66 6.33 2.32 6.66 3 7 C2.505 6.5875 2.01 6.175 1.5 5.75 C0 4 0 4 0 0 Z " fill="#272A2E" transform="translate(47,44)"/>
<path d="M0 0 C1.98 0.495 1.98 0.495 4 1 C4 2.98 4 4.96 4 7 C2.35 7 0.7 7 -1 7 C-0.67 5.68 -0.34 4.36 0 3 C0 3.99 0 4.98 0 6 C0.66 6 1.32 6 2 6 C1.34 4.02 0.68 2.04 0 0 Z " fill="#212B29" transform="translate(391,45)"/>
<path d="M0 0 C0.33 0 0.66 0 1 0 C1 2.31 1 4.62 1 7 C-0.65 7.33 -2.3 7.66 -4 8 C-4 6.35 -4 4.7 -4 3 C-2.68 3.33 -1.36 3.66 0 4 C0 2.68 0 1.36 0 0 Z " fill="#8CB5AD" transform="translate(450,43)"/>
<path d="M0 0 C2 1.75 2 1.75 4 4 C4 5.32 4 6.64 4 8 C2.68 8 1.36 8 0 8 C-0.98120464 4.94736336 -0.98120464 3.05263664 0 0 Z " fill="#7A9E98" transform="translate(389,43)"/>
<path d="M0 0 C1.98 0.495 1.98 0.495 4 1 C4 1.66 4 2.32 4 3 C3.67 3.33 3.34 3.66 3 4 C3.33 4.66 3.66 5.32 4 6 C2.35 5.67 0.7 5.34 -1 5 C-0.67 3.35 -0.34 1.7 0 0 Z " fill="#565656" transform="translate(408,319)"/>
<path d="M0 0 C0.99 0 1.98 0 3 0 C3 1.65 3 3.3 3 5 C1.68 5 0.36 5 -1 5 C-0.67 3.35 -0.34 1.7 0 0 Z " fill="#F7F7F7" transform="translate(364,318)"/>
<path d="M0 0 C1.98 0.495 1.98 0.495 4 1 C3.67 2.32 3.34 3.64 3 5 C1.68 4.67 0.36 4.34 -1 4 C-0.67 2.68 -0.34 1.36 0 0 Z " fill="#688681" transform="translate(440,31)"/>
<path d="M0 0 C0.66 0 1.32 0 2 0 C2.66 0.66 3.32 1.32 4 2 C3.33333333 4 2.66666667 6 2 8 C1.34 8 0.68 8 0 8 C0 5.36 0 2.72 0 0 Z " fill="#727272" transform="translate(154,87)"/>
<path d="M0 0 C2.29013653 3.4352048 2.17842973 4.985331 2 9 C1.01 9 0.02 9 -1 9 C-1.625 5.625 -1.625 5.625 -2 2 C-1.34 1.34 -0.68 0.68 0 0 Z " fill="#354441" transform="translate(540,43)"/>
<path d="M0 0 C2.29013653 3.4352048 2.17842973 4.985331 2 9 C1.01 9 0.02 9 -1 9 C-1.625 5.625 -1.625 5.625 -2 2 C-1.34 1.34 -0.68 0.68 0 0 Z " fill="#494F48" transform="translate(259,43)"/>
<path d="M0 0 C1.32 0 2.64 0 4 0 C4 1.32 4 2.64 4 4 C2.35 4.66 0.7 5.32 -1 6 C-0.67 4.02 -0.34 2.04 0 0 Z " fill="#D1D1D1" transform="translate(153,192)"/>
<path d="M0 0 C1.32 0.33 2.64 0.66 4 1 C4.625 2.875 4.625 2.875 5 5 C4.34 5.66 3.68 6.32 3 7 C2.01 6.67 1.02 6.34 0 6 C0.66 6 1.32 6 2 6 C2 4.35 2 2.7 2 1 C1.34 0.67 0.68 0.34 0 0 Z " fill="#51575E" transform="translate(55,45)"/>
<path d="M0 0 C1.32 0.33 2.64 0.66 4 1 C4.625 2.875 4.625 2.875 5 5 C4.34 5.66 3.68 6.32 3 7 C2.01 6.67 1.02 6.34 0 6 C0.66 6 1.32 6 2 6 C2 4.35 2 2.7 2 1 C1.34 0.67 0.68 0.34 0 0 Z " fill="#3B4C49" transform="translate(532,30)"/>
<path d="M0 0 C0.66 0.33 1.32 0.66 2 1 C1.67 3.64 1.34 6.28 1 9 C0.34 9 -0.32 9 -1 9 C-1.09765625 2.84765625 -1.09765625 2.84765625 -1 1 C-0.67 0.67 -0.34 0.34 0 0 Z " fill="#363B36" transform="translate(261,28)"/>
<path d="M0 0 C0.99 0 1.98 0 3 0 C2.67 1.65 2.34 3.3 2 5 C1.01 5 0.02 5 -1 5 C-0.67 3.35 -0.34 1.7 0 0 Z " fill="#F3F3F3" transform="translate(167,369)"/>
<path d="M0 0 C1.65 0 3.3 0 5 0 C4.67 1.98 4.34 3.96 4 6 C3.01 5.67 2.02 5.34 1 5 C0.67 3.35 0.34 1.7 0 0 Z " fill="#8C8C8C" transform="translate(380,319)"/>
<path d="M0 0 C1.15941038 3.47823115 0.70820884 5.45895578 0 9 C-0.66 9 -1.32 9 -2 9 C-2.6875 6.1875 -2.6875 6.1875 -3 3 C-1.5625 1.125 -1.5625 1.125 0 0 Z " fill="#878787" transform="translate(419,190)"/>
<path d="M0 0 C0.33 0.66 0.66 1.32 1 2 C1.99 1.67 2.98 1.34 4 1 C4 2.65 4 4.3 4 6 C3.34 5.67 2.68 5.34 2 5 C1.67 5.66 1.34 6.32 1 7 C0.34 6.67 -0.32 6.34 -1 6 C-0.67 4.02 -0.34 2.04 0 0 Z " fill="#C3C3C3" transform="translate(210,192)"/>
<path d="M0 0 C2 3 2 3 1.625 5.1875 C1.41875 5.785625 1.2125 6.38375 1 7 C1 6.34 1 5.68 1 5 C-0.98 5 -2.96 5 -5 5 C-4.67 4.34 -4.34 3.68 -4 3 C-3.01 3 -2.02 3 -1 3 C-0.67 2.01 -0.34 1.02 0 0 Z " fill="#B9B9B9" transform="translate(202,130)"/>
<path d="M0 0 C2.29013653 3.4352048 2.17842973 4.985331 2 9 C1.01 8.67 0.02 8.34 -1 8 C-1.04241723 5.66705225 -1.04092937 3.33297433 -1 1 C-0.67 0.67 -0.34 0.34 0 0 Z " fill="#2E3B39" transform="translate(524,28)"/>
<path d="M0 0 C2.29013653 3.4352048 2.17842973 4.985331 2 9 C1.01 8.67 0.02 8.34 -1 8 C-1.04241723 5.66705225 -1.04092937 3.33297433 -1 1 C-0.67 0.67 -0.34 0.34 0 0 Z " fill="#40453F" transform="translate(257,28)"/>
<path d="M0 0 C0.99 0 1.98 0 3 0 C2.67 1.98 2.34 3.96 2 6 C1.34 6 0.68 6 0 6 C-0.38218767 4.34385343 -0.71395102 2.67542976 -1 1 C-0.67 0.67 -0.34 0.34 0 0 Z " fill="#C9C9C9" transform="translate(198,192)"/>
<path d="M0 0 C2.0625 0.4375 2.0625 0.4375 4 1 C3.01 1.495 3.01 1.495 2 2 C2 3.32 2 4.64 2 6 C1.34 6 0.68 6 0 6 C-0.38218767 4.34385343 -0.71395102 2.67542976 -1 1 C-0.67 0.67 -0.34 0.34 0 0 Z " fill="#9D9D9D" transform="translate(185,192)"/>
<path d="M0 0 C2.475 0.495 2.475 0.495 5 1 C4.67 2.32 4.34 3.64 4 5 C2.68 4.67 1.36 4.34 0 4 C0 2.68 0 1.36 0 0 Z " fill="#616161" transform="translate(210,90)"/>
</svg>
